<svg xmlns="http://www.w3.org/2000/svg" viewBox="8 8 184 184">
  <defs>
    <linearGradient id="m" x1="0.2" y1="0.05" x2="0.8" y2="0.95">
      <stop offset="0" stop-color="#f7ebc4"/><stop offset="0.28" stop-color="#dcc17c"/><stop offset="0.58" stop-color="#b8913f"/>
      <stop offset="0.82" stop-color="#8c6826"/><stop offset="1" stop-color="#5f4616"/>
    </linearGradient>
    <radialGradient id="b" cx="0.36" cy="0.32" r="0.75"><stop offset="0" stop-color="#fff7dc"/><stop offset="0.45" stop-color="#d6b565"/><stop offset="1" stop-color="#6f521b"/></radialGradient>
    <radialGradient id="e" cx="0.42" cy="0.36" r="0.75"><stop offset="0" stop-color="#1d2c4a"/><stop offset="1" stop-color="#080f1e"/></radialGradient>
    <linearGradient id="r" x1="0" y1="0" x2="1" y2="1"><stop offset="0" stop-color="#efdca2"/><stop offset="0.5" stop-color="#b38c3c"/><stop offset="1" stop-color="#5f4616"/></linearGradient>
  </defs>
  <path d="M100.00,18.00L120.83,56.75L164.11,48.87L146.80,89.32L179.94,118.25L137.53,129.93L135.58,173.88L100.00,148.00L64.42,173.88L62.47,129.93L20.06,118.25L53.20,89.32L35.89,48.87L79.17,56.75Z" fill="url(#m)"/>
  <path d="M100.00,100.00L79.17,56.75L100.00,18.00Z" fill="rgba(255,250,235,0.222)"/>
  <path d="M100.00,100.00L100.00,18.00L120.83,56.75Z" fill="rgba(40,26,4,0.255)"/>
  <path d="M100.00,100.00L120.83,56.75L164.11,48.87Z" fill="rgba(255,250,235,0.349)"/>
  <path d="M100.00,100.00L164.11,48.87L146.80,89.32Z" fill="rgba(40,26,4,0.399)"/>
  <path d="M100.00,100.00L146.80,89.32L179.94,118.25Z" fill="rgba(255,250,235,0.251)"/>
  <path d="M100.00,100.00L179.94,118.25L137.53,129.93Z" fill="rgba(40,26,4,0.288)"/>
  <path d="M100.00,100.00L137.53,129.93L135.58,173.88Z" fill="rgba(40,26,4,0.115)"/>
  <path d="M100.00,100.00L135.58,173.88L100.00,148.00Z" fill="rgba(255,250,235,0.098)"/>
  <path d="M100.00,100.00L100.00,148.00L64.42,173.88Z" fill="rgba(40,26,4,0.357)"/>
  <path d="M100.00,100.00L64.42,173.88L62.47,129.93Z" fill="rgba(255,250,235,0.312)"/>
  <path d="M100.00,100.00L62.47,129.93L20.06,118.25Z" fill="rgba(40,26,4,0.375)"/>
  <path d="M100.00,100.00L20.06,118.25L53.20,89.32Z" fill="rgba(255,250,235,0.328)"/>
  <path d="M100.00,100.00L53.20,89.32L35.89,48.87Z" fill="rgba(40,26,4,0.156)"/>
  <path d="M100.00,100.00L35.89,48.87L79.17,56.75Z" fill="rgba(255,250,235,0.135)"/>
  <path d="M100.00,18.00L120.83,56.75L164.11,48.87L146.80,89.32L179.94,118.25L137.53,129.93L135.58,173.88L100.00,148.00L64.42,173.88L62.47,129.93L20.06,118.25L53.20,89.32L35.89,48.87L79.17,56.75Z" fill="none" stroke="#3f2d0b" stroke-width="2" stroke-linejoin="round"/>
  <circle cx="100.00" cy="19.00" r="8.5" fill="url(#b)" stroke="#3f2d0b" stroke-width="1.6"/>
  <circle cx="163.33" cy="49.50" r="8.5" fill="url(#b)" stroke="#3f2d0b" stroke-width="1.6"/>
  <circle cx="178.97" cy="118.02" r="8.5" fill="url(#b)" stroke="#3f2d0b" stroke-width="1.6"/>
  <circle cx="135.14" cy="172.98" r="8.5" fill="url(#b)" stroke="#3f2d0b" stroke-width="1.6"/>
  <circle cx="64.86" cy="172.98" r="8.5" fill="url(#b)" stroke="#3f2d0b" stroke-width="1.6"/>
  <circle cx="21.03" cy="118.02" r="8.5" fill="url(#b)" stroke="#3f2d0b" stroke-width="1.6"/>
  <circle cx="36.67" cy="49.50" r="8.5" fill="url(#b)" stroke="#3f2d0b" stroke-width="1.6"/>
  <circle cx="100" cy="100" r="31" fill="url(#r)" stroke="#3f2d0b" stroke-width="1.6"/>
  <circle cx="100" cy="100" r="25.5" fill="url(#e)"/>
  <path d="M100.00,89.00L102.70,96.28L110.46,96.60L104.37,101.42L106.47,108.90L100.00,104.60L93.53,108.90L95.63,101.42L89.54,96.60L97.30,96.28Z" fill="url(#m)"/>
  <path d="M100.00,100.00L97.30,96.28L100.00,89.00Z" fill="rgba(255,250,235,0.222)"/>
  <path d="M100.00,100.00L100.00,89.00L102.70,96.28Z" fill="rgba(40,26,4,0.255)"/>
  <path d="M100.00,100.00L102.70,96.28L110.46,96.60Z" fill="rgba(255,250,235,0.337)"/>
  <path d="M100.00,100.00L110.46,96.60L104.37,101.42Z" fill="rgba(40,26,4,0.385)"/>
  <path d="M100.00,100.00L104.37,101.42L106.47,108.90Z" fill="rgba(255,250,235,0.055)"/>
  <path d="M100.00,100.00L106.47,108.90L100.00,104.60Z" fill="rgba(40,26,4,0.066)"/>
  <path d="M100.00,100.00L100.00,104.60L93.53,108.90Z" fill="rgba(40,26,4,0.381)"/>
  <path d="M100.00,100.00L93.53,108.90L95.63,101.42Z" fill="rgba(255,250,235,0.334)"/>
  <path d="M100.00,100.00L95.63,101.42L89.54,96.60Z" fill="rgba(40,26,4,0.265)"/>
  <path d="M100.00,100.00L89.54,96.60L97.30,96.28Z" fill="rgba(255,250,235,0.231)"/>
</svg>
